<svg xmlns="http://www.w3.org/2000/svg" viewBox="0 0 500 500" width="500" height="500">
  <path d="M 441.384 125.979 C 432.798 124.6 425.998 123.116 420.989 121.536 C 415.98 119.955 411.532 118.028 407.648 115.755 C 403.763 113.484 399.825 110.62 395.84 107.163 C 391.853 103.704 386.486 99.408 379.737 94.273 C 365.832 83.208 352.799 74.712 340.631 68.785 C 328.465 62.86 316.555 58.019 304.902 54.263 C 296.927 51.696 290.331 48.831 285.119 45.67 C 279.905 42.51 275.356 38.855 271.47 34.705 C 267.585 30.557 264.058 25.914 260.889 20.775 C 257.719 15.641 254.192 9.813 250.306 3.294 C 246.424 9.813 242.896 15.641 239.727 20.775 C 236.558 25.914 233.029 30.557 229.145 34.705 C 225.259 38.855 220.711 42.51 215.496 45.67 C 210.282 48.831 203.689 51.696 195.714 54.263 C 184.06 58.019 172.147 62.86 159.983 68.785 C 147.818 74.712 134.783 83.208 120.877 94.273 C 114.129 99.408 108.762 103.704 104.776 107.163 C 100.789 110.62 96.853 113.484 92.966 115.755 C 89.082 118.028 84.587 119.955 79.473 121.536 C 74.359 123.116 67.408 124.6 58.616 125.979 C 64.547 132.697 70.629 138.376 76.865 143.021 C 83.103 147.662 89.801 150.676 96.955 152.058 C 87.141 166.085 79.678 181.348 74.566 197.844 C 69.454 214.339 66.896 231.576 66.896 249.556 C 66.896 267.928 69.454 285.315 74.566 301.713 C 79.678 318.112 87.141 333.322 96.955 347.348 C 89.801 348.93 83.103 351.994 76.865 356.537 C 70.629 361.08 64.547 366.71 58.616 373.427 C 67.408 375.009 74.359 376.59 79.473 378.168 C 84.587 379.749 89.082 381.677 92.966 383.948 C 96.853 386.219 100.789 389.084 104.776 392.543 C 108.762 395.999 114.129 400.396 120.877 405.729 C 134.783 416.201 147.818 424.499 159.983 430.621 C 172.147 436.746 184.06 441.785 195.714 445.736 C 203.689 448.107 210.282 450.872 215.496 454.033 C 220.711 457.195 225.259 460.801 229.145 464.852 C 233.029 468.9 236.558 473.544 239.727 478.777 C 242.896 484.014 246.424 489.991 250.306 496.707 C 254.192 489.991 257.719 484.014 260.889 478.777 C 264.058 473.544 267.585 468.9 271.47 464.852 C 275.356 460.801 279.905 457.195 285.119 454.033 C 290.331 450.872 296.927 448.107 304.902 445.736 C 316.555 441.785 328.518 436.746 340.786 430.621 C 353.054 424.499 366.038 416.201 379.737 405.729 C 386.486 400.396 391.853 395.999 395.84 392.543 C 399.825 389.084 403.763 386.219 407.648 383.948 C 411.532 381.677 415.98 379.749 420.989 378.168 C 425.998 376.59 432.798 375.009 441.384 373.427 C 435.66 366.71 429.729 361.08 423.596 356.537 C 417.463 351.994 410.815 348.93 403.659 347.348 C 413.474 333.322 420.938 318.112 426.052 301.713 C 431.163 285.315 433.718 267.928 433.718 249.556 C 433.718 231.576 431.163 214.339 426.052 197.844 C 420.938 181.348 413.474 166.085 403.659 152.058 C 410.815 150.676 417.463 147.662 423.596 143.021 C 429.729 138.376 435.66 132.697 441.384 125.979 Z M 418.077 366.315 C 413.375 367.896 409.028 369.774 405.039 371.948 C 401.056 374.121 397.22 376.491 393.539 379.058 C 389.859 381.628 386.28 384.343 382.803 387.207 C 379.328 390.074 375.75 392.987 372.069 395.949 C 358.779 406.62 346.408 414.719 334.959 420.25 C 323.506 425.781 312.26 430.425 301.22 434.178 C 294.677 436.353 288.902 438.673 283.891 441.144 C 278.882 443.615 274.435 446.428 270.55 449.587 C 266.665 452.748 263.087 456.258 259.815 460.107 C 256.542 463.962 253.376 468.258 250.306 472.999 C 247.239 468.258 244.07 463.962 240.799 460.107 C 237.53 456.258 233.951 452.748 230.065 449.587 C 226.18 446.428 221.733 443.615 216.725 441.144 C 211.713 438.673 205.937 436.353 199.395 434.178 C 188.355 430.425 177.109 425.781 165.657 420.25 C 154.204 414.719 141.836 406.62 128.546 395.949 C 124.866 392.987 121.285 390.074 117.81 387.207 C 114.336 384.343 110.757 381.628 107.078 379.058 C 103.397 376.491 99.561 374.121 95.573 371.948 C 91.588 369.774 87.242 367.896 82.537 366.315 C 87.04 363.155 91.484 361.032 95.88 359.943 C 100.279 358.858 104.622 358.561 108.916 359.056 C 113.21 359.55 117.506 360.732 121.798 362.611 C 126.09 364.489 130.385 366.71 134.679 369.279 C 136.521 367.106 138.716 364.737 141.275 362.168 C 143.828 359.6 146.641 358.315 149.707 358.315 C 151.344 358.315 153.644 359.648 156.608 362.316 C 159.574 364.982 163.152 367.896 167.344 371.059 C 171.537 374.217 176.391 377.133 181.913 379.799 C 187.433 382.467 193.465 383.798 200.006 383.798 C 206.549 383.798 212.07 383.602 216.569 383.207 C 221.067 382.814 225.158 382.022 228.838 380.837 C 232.52 379.651 236.047 377.922 239.419 375.651 C 242.795 373.38 246.424 370.465 250.306 366.907 C 254.192 370.465 257.821 373.38 261.198 375.651 C 264.568 377.922 268.094 379.651 271.778 380.837 C 275.456 382.022 279.598 382.814 284.199 383.207 C 288.801 383.602 294.269 383.798 300.606 383.798 C 307.151 383.798 313.184 382.467 318.703 379.799 C 324.222 377.133 329.079 374.217 333.271 371.059 C 337.463 367.896 341.041 364.982 344.009 362.316 C 346.971 359.648 349.27 358.315 350.909 358.315 C 353.974 358.315 356.784 359.6 359.343 362.168 C 361.899 364.737 364.094 367.106 365.933 369.279 C 370.23 366.71 374.522 364.489 378.817 362.611 C 383.111 360.732 387.455 359.55 391.853 359.056 C 396.248 358.561 400.644 358.858 405.039 359.943 C 409.438 361.032 413.781 363.155 418.077 366.315 Z M 424.824 249.556 C 424.824 267.928 422.165 285.315 416.85 301.713 C 411.532 318.112 403.763 333.126 393.539 346.758 C 389.449 346.758 385.513 347.301 381.731 348.388 C 377.946 349.473 373.502 351.398 368.387 354.168 C 366.14 351.994 363.432 350.117 360.261 348.536 C 357.094 346.956 353.974 346.165 350.909 346.165 C 347.229 346.165 343.597 347.547 340.018 350.311 C 336.44 353.079 332.658 356.092 328.671 359.351 C 324.683 362.611 320.441 365.575 315.941 368.243 C 311.444 370.909 306.333 372.241 300.606 372.241 C 293.656 372.241 288.034 371.948 283.739 371.354 C 279.446 370.761 275.607 369.676 272.239 368.094 C 268.864 366.513 265.59 364.24 262.422 361.277 C 259.254 358.315 255.214 354.463 250.306 349.719 C 245.401 354.463 241.364 358.315 238.193 361.277 C 235.023 364.24 231.803 366.513 228.53 368.094 C 225.259 369.676 221.477 370.761 217.184 371.354 C 212.889 371.948 207.165 372.241 200.006 372.241 C 194.281 372.241 189.172 370.909 184.672 368.243 C 180.173 365.575 175.985 362.611 172.099 359.351 C 168.213 356.092 164.481 353.079 160.902 350.311 C 157.325 347.547 153.593 346.165 149.707 346.165 C 146.641 346.165 143.521 346.956 140.354 348.536 C 137.186 350.117 134.475 351.994 132.227 354.168 C 126.912 351.398 122.412 349.473 118.728 348.388 C 115.05 347.301 111.166 346.758 107.078 346.758 C 97.059 333.126 89.338 318.112 83.92 301.713 C 78.502 285.315 75.792 267.928 75.792 249.556 C 75.792 231.576 78.502 214.438 83.92 198.14 C 89.338 181.84 97.059 166.679 107.078 152.654 C 111.166 153.048 115.05 152.654 118.728 151.466 C 122.412 150.279 126.912 148.404 132.227 145.836 C 134.475 147.616 137.186 149.39 140.354 151.169 C 143.521 152.946 146.641 153.837 149.707 153.837 C 153.593 153.837 157.325 152.505 160.902 149.835 C 164.481 147.17 168.213 144.206 172.099 140.948 C 175.985 137.684 180.173 134.675 184.672 131.906 C 189.172 129.142 194.281 127.758 200.006 127.758 C 207.165 127.758 212.889 128.055 217.184 128.648 C 221.477 129.24 225.259 130.325 228.53 131.906 C 231.803 133.488 235.023 135.76 238.193 138.722 C 241.364 141.685 245.401 145.538 250.306 150.279 C 255.214 145.538 259.254 141.685 262.422 138.722 C 265.59 135.76 268.864 133.488 272.239 131.906 C 275.607 130.325 279.446 129.24 283.739 128.648 C 288.034 128.055 293.656 127.758 300.606 127.758 C 306.333 127.758 311.444 129.142 315.941 131.906 C 320.441 134.675 324.683 137.684 328.671 140.948 C 332.658 144.206 336.44 147.17 340.018 149.835 C 343.597 152.505 347.229 153.837 350.909 153.837 C 353.974 153.837 357.094 152.946 360.261 151.169 C 363.432 149.39 366.14 147.616 368.387 145.836 C 373.502 148.404 377.946 150.279 381.731 151.466 C 385.513 152.654 389.449 153.048 393.539 152.654 C 403.763 166.679 411.532 181.84 416.85 198.14 C 422.165 214.438 424.824 231.576 424.824 249.556 Z M 418.077 133.095 C 409.281 139.415 400.543 141.835 391.853 140.353 C 383.161 138.873 374.522 135.661 365.933 130.721 C 364.094 132.895 361.899 135.266 359.343 137.836 C 356.784 140.404 353.974 141.685 350.909 141.685 C 349.27 141.685 346.971 140.353 344.009 137.684 C 341.041 135.021 337.463 132.056 333.271 128.795 C 329.079 125.536 324.222 122.523 318.703 119.756 C 313.184 116.99 307.151 115.611 300.606 115.611 C 294.269 115.611 288.801 115.854 284.199 116.35 C 279.598 116.844 275.456 117.733 271.778 119.016 C 268.094 120.3 264.568 122.077 261.198 124.351 C 257.821 126.623 254.192 129.537 250.306 133.095 C 246.424 129.537 242.795 126.623 239.419 124.351 C 236.047 122.077 232.52 120.3 228.838 119.016 C 225.158 117.733 221.067 116.844 216.569 116.35 C 212.07 115.854 206.549 115.611 200.006 115.611 C 193.465 115.611 187.433 116.99 181.913 119.756 C 176.391 122.523 171.537 125.536 167.344 128.795 C 163.152 132.056 159.574 135.021 156.608 137.684 C 153.644 140.353 151.344 141.685 149.707 141.685 C 146.641 141.685 143.828 140.404 141.275 137.836 C 138.716 135.266 136.521 132.895 134.679 130.721 C 126.09 135.661 117.506 138.873 108.916 140.353 C 100.328 141.835 91.536 139.415 82.537 133.095 C 87.242 131.71 91.588 129.93 95.573 127.758 C 99.561 125.584 103.397 123.165 107.078 120.498 C 110.757 117.83 114.336 115.066 117.81 112.2 C 121.285 109.337 124.866 106.419 128.546 103.458 C 141.836 92.988 154.204 84.935 165.657 79.306 C 177.109 73.676 188.355 69.18 199.395 65.823 C 205.937 63.454 211.713 60.982 216.725 58.412 C 221.733 55.844 226.18 53.027 230.065 49.969 C 233.951 46.906 237.53 43.498 240.799 39.742 C 244.07 35.991 247.239 31.742 250.306 27.001 C 253.376 31.742 256.542 35.991 259.815 39.742 C 263.087 43.498 266.665 46.906 270.55 49.969 C 274.435 53.027 278.882 55.844 283.891 58.412 C 288.902 60.982 294.677 63.454 301.22 65.823 C 312.26 69.18 323.506 73.676 334.959 79.306 C 346.408 84.935 358.779 92.988 372.069 103.458 C 375.75 106.419 379.328 109.337 382.803 112.2 C 386.28 115.066 389.859 117.83 393.539 120.498 C 397.22 123.165 401.056 125.584 405.039 127.758 C 409.028 129.93 413.375 131.71 418.077 133.095 Z M 352.134 386.764 C 353.566 385.38 354.126 383.898 353.82 382.319 C 353.515 380.74 352.799 379.455 351.673 378.467 C 350.549 377.477 349.118 376.933 347.381 376.835 C 345.642 376.736 344.057 377.477 342.624 379.058 C 338.536 383.798 332.761 388.146 325.296 392.098 C 317.835 396.047 308.786 399.11 298.152 401.282 C 296.313 401.876 295.035 402.865 294.322 404.249 C 293.605 405.632 293.399 407.061 293.707 408.544 C 294.014 410.027 294.832 411.213 296.16 412.1 C 297.486 412.99 299.176 413.237 301.22 412.843 C 312.672 410.471 322.69 407.061 331.279 402.619 C 339.867 398.171 346.817 392.886 352.134 386.764 Z M 271.165 412.248 C 271.165 406.718 269.119 402.025 265.027 398.171 C 260.939 394.321 256.034 392.394 250.306 392.394 C 244.584 392.394 239.675 394.321 235.587 398.171 C 231.496 402.025 229.453 406.718 229.453 412.248 C 229.453 417.978 231.496 422.869 235.587 426.919 C 239.675 430.966 244.584 432.992 250.306 432.992 C 256.034 432.992 260.939 430.966 265.027 426.919 C 269.119 422.869 271.165 417.978 271.165 412.248 Z M 202.462 401.282 C 191.83 399.11 182.781 396.047 175.319 392.098 C 167.856 388.146 162.079 383.798 157.988 379.058 C 156.557 377.477 155.025 376.736 153.388 376.835 C 151.754 376.933 150.322 377.477 149.097 378.467 C 147.869 379.455 147.102 380.74 146.795 382.319 C 146.487 383.898 147.048 385.38 148.482 386.764 C 153.799 392.886 160.749 398.171 169.338 402.619 C 177.924 407.061 187.944 410.471 199.395 412.843 C 201.441 413.237 203.125 412.99 204.455 412.1 C 205.786 411.213 206.601 410.027 206.908 408.544 C 207.216 407.061 207.011 405.632 206.295 404.249 C 205.58 402.865 204.303 401.876 202.462 401.282 Z M 352.134 113.238 C 341.297 100.793 324.326 91.902 301.22 86.566 C 299.176 86.171 297.486 86.468 296.16 87.455 C 294.832 88.444 294.014 89.679 293.707 91.159 C 293.399 92.64 293.605 94.124 294.322 95.606 C 295.035 97.086 296.313 98.025 298.152 98.42 C 308.786 100.593 317.835 103.556 325.296 107.312 C 332.761 111.065 338.536 115.409 342.624 120.349 C 344.057 121.932 345.642 122.72 347.381 122.72 C 349.118 122.72 350.549 122.277 351.673 121.388 C 352.799 120.498 353.515 119.262 353.82 117.682 C 354.126 116.1 353.566 114.621 352.134 113.238 Z M 271.165 87.159 C 271.165 81.627 269.119 76.886 265.027 72.933 C 260.939 68.984 256.034 67.009 250.306 67.009 C 244.584 67.009 239.675 68.984 235.587 72.933 C 231.496 76.886 229.453 81.627 229.453 87.159 C 229.453 92.889 231.496 97.631 235.587 101.382 C 239.675 105.139 244.584 107.014 250.306 107.014 C 256.034 107.014 260.939 105.139 265.027 101.382 C 269.119 97.631 271.165 92.889 271.165 87.159 Z M 202.462 98.42 C 204.303 98.025 205.58 97.086 206.295 95.606 C 207.011 94.124 207.216 92.64 206.908 91.159 C 206.601 89.679 205.786 88.444 204.455 87.455 C 203.125 86.468 201.441 86.171 199.395 86.566 C 176.288 91.902 159.317 100.793 148.482 113.238 C 147.048 114.621 146.487 116.1 146.795 117.682 C 147.102 119.262 147.869 120.498 149.097 121.388 C 150.322 122.277 151.754 122.72 153.388 122.72 C 155.025 122.72 156.557 121.932 157.988 120.349 C 162.079 115.409 167.856 111.065 175.319 107.312 C 182.781 103.556 191.83 100.593 202.462 98.42 Z" style="fill: rgb(2, 75, 66);"/>
</svg>